<mxfile host="65bd71144e" modified="2020-10-22T11:10:03.934Z" agent="5.0 (Macintosh; Intel Mac OS X 10_14_6) AppleWebKit/537.36 (KHTML, like Gecko) Code/1.48.2 Chrome/78.0.3904.130 Electron/7.3.2 Safari/537.36" version="13.6.5" etag="00F4lM0eln7ZBpvZbwoS">
    <diagram id="QNNbduFmZcMBfbZ14_xa" name="Page-1">
        <mxGraphModel dx="1138" dy="735" grid="1" gridSize="10" guides="1" tooltips="1" connect="1" arrows="1" fold="1" page="1" pageScale="1" pageWidth="827" pageHeight="1169" math="0" shadow="0">
            <root>
                <mxCell id="0"/>
                <mxCell id="1" parent="0"/>
                <mxCell id="2" value="&lt;b&gt;NotContacted&lt;/b&gt;" style="html=1;" vertex="1" parent="1">
                    <mxGeometry x="177.5" y="268" width="110" height="50" as="geometry"/>
                </mxCell>
                <mxCell id="3" value="&amp;lt;package&amp;gt; query_pool::peers::closest" style="shape=folder;fontStyle=1;spacingTop=10;tabWidth=40;tabHeight=14;tabPosition=left;html=1;" vertex="1" parent="1">
                    <mxGeometry x="80" y="10" width="350" height="40" as="geometry"/>
                </mxCell>
                <mxCell id="4" value="QueryPeerState" style="shape=note;whiteSpace=wrap;html=1;backgroundOutline=1;darkOpacity=0.05;fontStyle=1" vertex="1" parent="1">
                    <mxGeometry x="150" y="60" width="165" height="60" as="geometry"/>
                </mxCell>
                <mxCell id="5" value="&lt;b&gt;Waiting&lt;/b&gt;" style="html=1;" vertex="1" parent="1">
                    <mxGeometry x="177.5" y="605" width="110" height="50" as="geometry"/>
                </mxCell>
                <mxCell id="6" value="&lt;b&gt;Unresponsive&lt;/b&gt;" style="html=1;" vertex="1" parent="1">
                    <mxGeometry x="610" y="1169" width="110" height="50" as="geometry"/>
                </mxCell>
                <mxCell id="8" value="&lt;b&gt;Failed&lt;/b&gt;" style="html=1;" vertex="1" parent="1">
                    <mxGeometry x="790" y="1660" width="110" height="50" as="geometry"/>
                </mxCell>
                <mxCell id="9" value="&lt;b&gt;Succeeded&lt;/b&gt;" style="html=1;" vertex="1" parent="1">
                    <mxGeometry x="177.5" y="1650" width="110" height="50" as="geometry"/>
                </mxCell>
                <mxCell id="11" value="see:&lt;br&gt;QueryPeer::new()" style="rounded=1;whiteSpace=wrap;html=1;align=left;" vertex="1" parent="1">
                    <mxGeometry x="260" y="130" width="130" height="60" as="geometry"/>
                </mxCell>
                <mxCell id="12" value="FindNodeQuery picks up the QueryPeer and update its state from &quot;NotContacted&quot; to &quot;Waiting&quot;.&lt;br&gt;&lt;br&gt;see:&lt;br&gt;* FindNodeQuery::next()&lt;br&gt;* Query::next()&lt;br&gt;* QueryPool::poll()" style="rounded=1;whiteSpace=wrap;html=1;align=left;" vertex="1" parent="1">
                    <mxGeometry x="260" y="420" width="520" height="120" as="geometry"/>
                </mxCell>
                <mxCell id="13" value="" style="endArrow=classic;html=1;exitX=0.5;exitY=1;exitDx=0;exitDy=0;entryX=0.5;entryY=0;entryDx=0;entryDy=0;" edge="1" parent="1" source="2" target="5">
                    <mxGeometry width="50" height="50" relative="1" as="geometry">
                        <mxPoint x="70" y="548" as="sourcePoint"/>
                        <mxPoint x="120" y="498" as="targetPoint"/>
                    </mxGeometry>
                </mxCell>
                <mxCell id="15" value="service::Service sends a RPC request." style="rounded=1;whiteSpace=wrap;html=1;align=left;" vertex="1" parent="1">
                    <mxGeometry x="270" y="700" width="230" height="60" as="geometry"/>
                </mxCell>
                <mxCell id="16" value="" style="ellipse;html=1;shape=startState;fillColor=#000000;strokeColor=#ff0000;align=left;" vertex="1" parent="1">
                    <mxGeometry x="217.5" y="130" width="30" height="30" as="geometry"/>
                </mxCell>
                <mxCell id="17" value="" style="edgeStyle=orthogonalEdgeStyle;html=1;verticalAlign=bottom;endArrow=open;endSize=8;strokeColor=#ff0000;entryX=0.5;entryY=0;entryDx=0;entryDy=0;exitX=0.5;exitY=1;exitDx=0;exitDy=0;" edge="1" source="16" parent="1" target="2">
                    <mxGeometry relative="1" as="geometry">
                        <mxPoint x="65" y="468" as="targetPoint"/>
                        <mxPoint x="232.5" y="178" as="sourcePoint"/>
                    </mxGeometry>
                </mxCell>
                <mxCell id="20" value="" style="ellipse;html=1;shape=endState;fillColor=#000000;strokeColor=#ff0000;align=left;" vertex="1" parent="1">
                    <mxGeometry x="590" y="1880" width="30" height="30" as="geometry"/>
                </mxCell>
                <mxCell id="22" value="&lt;div&gt;&amp;nbsp; &amp;nbsp; /// The peer has not yet been contacted.&lt;/div&gt;&lt;div&gt;&amp;nbsp; &amp;nbsp; ///&lt;/div&gt;&lt;div&gt;&amp;nbsp; &amp;nbsp; /// This is the starting state for every peer known to, or discovered by, a query.&lt;/div&gt;" style="shape=note;whiteSpace=wrap;html=1;backgroundOutline=1;darkOpacity=0.05;align=left;" vertex="1" parent="1">
                    <mxGeometry x="300" y="248" width="440" height="82" as="geometry"/>
                </mxCell>
                <mxCell id="23" value="&lt;div&gt;&amp;nbsp; &amp;nbsp; /// The query is waiting for a result from the peer.&lt;/div&gt;" style="shape=note;whiteSpace=wrap;html=1;backgroundOutline=1;darkOpacity=0.05;align=left;" vertex="1" parent="1">
                    <mxGeometry x="300" y="599.5" width="440" height="61" as="geometry"/>
                </mxCell>
                <mxCell id="24" value="&lt;font color=&quot;#000000&quot;&gt;The RPC request exceeded the timeout?&lt;/font&gt;" style="rhombus;whiteSpace=wrap;html=1;fillColor=#ffffc0;strokeColor=#ff0000;align=center;" vertex="1" parent="1">
                    <mxGeometry x="90" y="1040" width="287.5" height="100" as="geometry"/>
                </mxCell>
                <mxCell id="25" value="yes" style="edgeStyle=orthogonalEdgeStyle;html=1;align=left;verticalAlign=bottom;endArrow=open;endSize=8;strokeColor=#ff0000;entryX=0.5;entryY=0;entryDx=0;entryDy=0;" edge="1" source="24" parent="1" target="6">
                    <mxGeometry x="-1" relative="1" as="geometry">
                        <mxPoint x="540" y="840" as="targetPoint"/>
                        <Array as="points">
                            <mxPoint x="665" y="1090"/>
                        </Array>
                    </mxGeometry>
                </mxCell>
                <mxCell id="26" value="no" style="edgeStyle=orthogonalEdgeStyle;html=1;align=left;verticalAlign=top;endArrow=open;endSize=8;strokeColor=#ff0000;entryX=0.5;entryY=0;entryDx=0;entryDy=0;" edge="1" source="24" parent="1" target="32">
                    <mxGeometry x="-1" relative="1" as="geometry">
                        <mxPoint x="234" y="1010" as="targetPoint"/>
                    </mxGeometry>
                </mxCell>
                <mxCell id="27" value="&lt;div&gt;&amp;nbsp; &amp;nbsp; /// A result was not delivered for the peer within the configured timeout.&lt;/div&gt;&lt;div&gt;&amp;nbsp; &amp;nbsp; ///&lt;/div&gt;&lt;div&gt;&amp;nbsp; &amp;nbsp; /// The peer is not taken into account for the termination conditions&lt;/div&gt;&lt;div&gt;&amp;nbsp; &amp;nbsp; /// of the iterator until and unless it responds.&lt;/div&gt;" style="shape=note;whiteSpace=wrap;html=1;backgroundOutline=1;darkOpacity=0.05;align=left;" vertex="1" parent="1">
                    <mxGeometry x="750" y="1148.75" width="440" height="90.5" as="geometry"/>
                </mxCell>
                <mxCell id="28" value="FindNodeQuery picks up the QueryPeer and update its state from &quot;Waiting&quot; to &quot;Unresponsive&quot; if the QueryPeer don't respond within the timeout.&lt;br&gt;&lt;br&gt;see:&lt;br&gt;* FindNodeQuery::next()&lt;br&gt;* Query::next()&lt;br&gt;* QueryPool::poll()" style="rounded=1;whiteSpace=wrap;html=1;align=left;" vertex="1" parent="1">
                    <mxGeometry x="590" y="980" width="520" height="120" as="geometry"/>
                </mxCell>
                <mxCell id="29" value="" style="endArrow=classic;html=1;exitX=0.5;exitY=1;exitDx=0;exitDy=0;entryX=0.5;entryY=0;entryDx=0;entryDy=0;" edge="1" parent="1" source="6" target="8">
                    <mxGeometry width="50" height="50" relative="1" as="geometry">
                        <mxPoint x="610" y="1120" as="sourcePoint"/>
                        <mxPoint x="611.25" y="1265" as="targetPoint"/>
                        <Array as="points">
                            <mxPoint x="665" y="1260"/>
                            <mxPoint x="845" y="1260"/>
                            <mxPoint x="845" y="1290"/>
                        </Array>
                    </mxGeometry>
                </mxCell>
                <mxCell id="30" value="" style="endArrow=classic;html=1;exitX=0.5;exitY=1;exitDx=0;exitDy=0;entryX=0.5;entryY=0;entryDx=0;entryDy=0;" edge="1" parent="1" source="8" target="20">
                    <mxGeometry width="50" height="50" relative="1" as="geometry">
                        <mxPoint x="932.5" y="1420" as="sourcePoint"/>
                        <mxPoint x="700" y="1535.5" as="targetPoint"/>
                    </mxGeometry>
                </mxCell>
                <mxCell id="31" value="see:&lt;br&gt;FindNodeQuery::on_failure()" style="rounded=1;whiteSpace=wrap;html=1;align=left;" vertex="1" parent="1">
                    <mxGeometry x="820" y="1410" width="230" height="60" as="geometry"/>
                </mxCell>
                <mxCell id="32" value="&lt;font color=&quot;#000000&quot;&gt;The response is correct?&lt;/font&gt;" style="rhombus;whiteSpace=wrap;html=1;fillColor=#ffffc0;strokeColor=#ff0000;align=center;" vertex="1" parent="1">
                    <mxGeometry x="90" y="1270" width="287.5" height="100" as="geometry"/>
                </mxCell>
                <mxCell id="36" value="yes" style="edgeStyle=orthogonalEdgeStyle;html=1;align=left;verticalAlign=top;endArrow=open;endSize=8;strokeColor=#ff0000;exitX=0.5;exitY=1;exitDx=0;exitDy=0;entryX=0.5;entryY=0;entryDx=0;entryDy=0;" edge="1" parent="1" source="32" target="9">
                    <mxGeometry x="-1" relative="1" as="geometry">
                        <mxPoint x="247.7" y="1509.02" as="targetPoint"/>
                        <mxPoint x="247.49999999999994" y="1399.0026086956523" as="sourcePoint"/>
                    </mxGeometry>
                </mxCell>
                <mxCell id="37" value="see:&lt;br&gt;FindNodeQuery::on_success()" style="rounded=1;whiteSpace=wrap;html=1;align=left;" vertex="1" parent="1">
                    <mxGeometry x="30" y="1510" width="230" height="60" as="geometry"/>
                </mxCell>
                <mxCell id="38" value="" style="endArrow=classic;html=1;exitX=0.5;exitY=1;exitDx=0;exitDy=0;entryX=1;entryY=0.5;entryDx=0;entryDy=0;" edge="1" parent="1" source="6" target="9">
                    <mxGeometry width="50" height="50" relative="1" as="geometry">
                        <mxPoint x="660" y="1080" as="sourcePoint"/>
                        <mxPoint x="240" y="1270" as="targetPoint"/>
                        <Array as="points">
                            <mxPoint x="665" y="1260"/>
                            <mxPoint x="570" y="1260"/>
                            <mxPoint x="480" y="1260"/>
                            <mxPoint x="480" y="1445"/>
                        </Array>
                    </mxGeometry>
                </mxCell>
                <mxCell id="39" value="The query marked as Unresponsive may transition&amp;nbsp; to Succeeded if the result of the query has delivered behind timeout. (IMO)&lt;br&gt;&lt;br&gt;see:&lt;br&gt;FindNodeQuery::on_success()" style="rounded=1;whiteSpace=wrap;html=1;align=left;" vertex="1" parent="1">
                    <mxGeometry x="290" y="1470" width="370" height="110" as="geometry"/>
                </mxCell>
                <mxCell id="42" value="" style="endArrow=classic;html=1;exitX=0.5;exitY=1;exitDx=0;exitDy=0;entryX=0.5;entryY=0;entryDx=0;entryDy=0;" edge="1" parent="1" source="9" target="20">
                    <mxGeometry width="50" height="50" relative="1" as="geometry">
                        <mxPoint x="855" y="1480" as="sourcePoint"/>
                        <mxPoint x="575" y="1680" as="targetPoint"/>
                    </mxGeometry>
                </mxCell>
                <mxCell id="44" value="&lt;font color=&quot;#000000&quot;&gt;Sent the request successfully?&lt;/font&gt;" style="rhombus;whiteSpace=wrap;html=1;fillColor=#ffffc0;strokeColor=#ff0000;align=center;" vertex="1" parent="1">
                    <mxGeometry x="90" y="830" width="287.5" height="100" as="geometry"/>
                </mxCell>
                <mxCell id="45" value="" style="endArrow=classic;html=1;exitX=0.5;exitY=1;exitDx=0;exitDy=0;entryX=0.5;entryY=0;entryDx=0;entryDy=0;" edge="1" parent="1" source="5" target="44">
                    <mxGeometry width="50" height="50" relative="1" as="geometry">
                        <mxPoint x="232.5" y="655" as="sourcePoint"/>
                        <mxPoint x="233.75" y="1040" as="targetPoint"/>
                    </mxGeometry>
                </mxCell>
                <mxCell id="46" value="yes" style="edgeStyle=orthogonalEdgeStyle;html=1;align=left;verticalAlign=bottom;endArrow=open;endSize=8;strokeColor=#ff0000;exitX=0.5;exitY=1;exitDx=0;exitDy=0;" edge="1" parent="1" source="44">
                    <mxGeometry x="-1" relative="1" as="geometry">
                        <mxPoint x="234" y="1040" as="targetPoint"/>
                        <mxPoint x="387.5" y="1100" as="sourcePoint"/>
                        <Array as="points">
                            <mxPoint x="234" y="1030"/>
                            <mxPoint x="234" y="1030"/>
                        </Array>
                    </mxGeometry>
                </mxCell>
                <mxCell id="47" value="no" style="edgeStyle=orthogonalEdgeStyle;html=1;align=left;verticalAlign=top;endArrow=open;endSize=8;strokeColor=#ff0000;exitX=1;exitY=0.5;exitDx=0;exitDy=0;entryX=1;entryY=0.5;entryDx=0;entryDy=0;" edge="1" parent="1" source="44" target="8">
                    <mxGeometry x="-1" relative="1" as="geometry">
                        <mxPoint x="1250" y="1580" as="targetPoint"/>
                        <mxPoint x="500.04999999999995" y="870.0026086956523" as="sourcePoint"/>
                        <Array as="points">
                            <mxPoint x="1240" y="880"/>
                            <mxPoint x="1240" y="1685"/>
                        </Array>
                    </mxGeometry>
                </mxCell>
                <mxCell id="48" value="* SelfRequest (the target socket address equals own one.)&lt;br&gt;* Failed to encrypt the message" style="rounded=1;whiteSpace=wrap;html=1;align=left;" vertex="1" parent="1">
                    <mxGeometry x="520" y="830" width="350" height="90" as="geometry"/>
                </mxCell>
                <mxCell id="49" value="no" style="edgeStyle=orthogonalEdgeStyle;html=1;align=left;verticalAlign=top;endArrow=open;endSize=8;strokeColor=#ff0000;entryX=0;entryY=0.5;entryDx=0;entryDy=0;" edge="1" parent="1" source="32" target="24">
                    <mxGeometry x="-1" relative="1" as="geometry">
                        <mxPoint x="39.9" y="1260.02" as="targetPoint"/>
                        <mxPoint x="39.94999999999995" y="1130.0026086956523" as="sourcePoint"/>
                        <Array as="points">
                            <mxPoint x="30" y="1320"/>
                            <mxPoint x="30" y="1090"/>
                        </Array>
                    </mxGeometry>
                </mxCell>
            </root>
        </mxGraphModel>
    </diagram>
</mxfile>